<svg width="97" height="96" viewBox="0 0 97 96" fill="none" xmlns="http://www.w3.org/2000/svg">
<path d="M1.51343 17.6383C1.19239 17.3211 0.937567 16.9437 0.763671 16.5279C0.589774 16.1121 0.500244 15.6661 0.500244 15.2157C0.500244 14.7653 0.589774 14.3193 0.763671 13.9035C0.937567 13.4877 1.19239 13.1103 1.51343 12.7931L13.0908 1.26022C13.7358 0.617704 14.6106 0.256745 15.5228 0.256745C15.9744 0.256745 16.4216 0.345363 16.8389 0.517539C17.2562 0.689714 17.6353 0.942076 17.9547 1.26022C18.2741 1.57835 18.5274 1.95604 18.7002 2.37171C18.8731 2.78738 18.962 3.23289 18.962 3.68281C18.962 4.13272 18.8731 4.57823 18.7002 4.9939C18.5274 5.40957 18.2741 5.78726 17.9547 6.1054L6.3773 17.6383C6.05888 17.9581 5.68004 18.2119 5.26264 18.3852C4.84524 18.5584 4.39754 18.6476 3.94537 18.6476C3.49319 18.6476 3.04549 18.5584 2.62809 18.3852C2.21069 18.2119 1.83185 17.9581 1.51343 17.6383ZM3.94537 37.8038C4.39615 37.8064 4.84302 37.7203 5.26035 37.5505C5.67767 37.3807 6.05725 37.1305 6.3773 36.8143L37.2047 6.1054C37.524 5.78726 37.7774 5.40957 37.9502 4.9939C38.123 4.57823 38.212 4.13272 38.212 3.68281C38.212 3.23289 38.123 2.78738 37.9502 2.37171C37.7774 1.95604 37.524 1.57835 37.2047 1.26022C36.8853 0.942076 36.5062 0.689714 36.0889 0.517539C35.6716 0.345363 35.2244 0.256745 34.7727 0.256745C33.8606 0.256745 32.9858 0.617704 32.3408 1.26022L1.51343 31.9691C1.19239 32.2863 0.937567 32.6637 0.763671 33.0795C0.589774 33.4953 0.500244 33.9413 0.500244 34.3917C0.500244 34.8421 0.589774 35.2881 0.763671 35.7039C0.937567 36.1197 1.19239 36.4971 1.51343 36.8143C1.83349 37.1305 2.21306 37.3807 2.63039 37.5505C3.04771 37.7203 3.49458 37.8064 3.94537 37.8038ZM3.94537 57.1163C4.39615 57.1189 4.84302 57.0328 5.26035 56.863C5.67767 56.6932 6.05725 56.443 6.3773 56.1268L56.6602 6.1054C57.0411 5.81026 57.3552 5.43825 57.5817 5.01376C57.8083 4.58928 57.9422 4.12189 57.9748 3.64223C58.0074 3.16257 57.9378 2.68147 57.7707 2.23046C57.6036 1.77945 57.3427 1.36871 57.0051 1.02515C56.6675 0.6816 56.2608 0.412989 55.8118 0.236926C55.3627 0.0608634 54.8813 -0.0186777 54.3992 0.00351592C53.9171 0.0257096 53.4452 0.149137 53.0143 0.36571C52.5834 0.582282 52.2034 0.887109 51.899 1.26022L1.51343 51.4522C1.19239 51.7694 0.937567 52.1468 0.763671 52.5626C0.589774 52.9784 0.500244 53.4244 0.500244 53.8748C0.500244 54.3252 0.589774 54.7712 0.763671 55.187C0.937567 55.6028 1.19239 55.9802 1.51343 56.2974C2.17628 56.8988 3.04941 57.2173 3.94537 57.1845V57.1163ZM3.94537 76.4288C4.39615 76.4314 4.84302 76.3453 5.26035 76.1755C5.67767 76.0057 6.05725 75.7555 6.3773 75.4393L76.0471 6.1054C76.6921 5.46289 77.0545 4.59145 77.0545 3.68281C77.0545 2.77416 76.6921 1.90273 76.0471 1.26022C75.4022 0.617704 74.5274 0.256745 73.6152 0.256745C72.7031 0.256745 71.8283 0.617704 71.1833 1.26022L1.51343 70.6623C1.19239 70.9795 0.937567 71.3569 0.763671 71.7727C0.589774 72.1885 0.500244 72.6345 0.500244 73.0849C0.500244 73.5353 0.589774 73.9813 0.763671 74.3971C0.937567 74.8129 1.19239 75.1903 1.51343 75.5075C1.83349 75.8237 2.21306 76.0739 2.63039 76.2437C3.04771 76.4135 3.49458 76.4996 3.94537 76.497V76.4288ZM95.4341 1.36258C95.1157 1.04277 94.7369 0.788927 94.3195 0.615699C93.9021 0.442471 93.4544 0.353285 93.0022 0.353285C92.55 0.353285 92.1023 0.442471 91.6849 0.615699C91.2675 0.788927 90.8887 1.04277 90.5703 1.36258L1.51343 90.0772C1.19239 90.3944 0.937567 90.7718 0.763671 91.1875C0.589774 91.6033 0.500244 92.0493 0.500244 92.4998C0.500244 92.9502 0.589774 93.3962 0.763671 93.812C0.937567 94.2278 1.19239 94.6051 1.51343 94.9223C1.83185 95.2422 2.21069 95.496 2.62809 95.6692C3.04549 95.8425 3.49319 95.9316 3.94537 95.9316C4.39754 95.9316 4.84524 95.8425 5.26264 95.6692C5.68004 95.496 6.05888 95.2422 6.3773 94.9223L95.4341 6.20776C95.771 5.889 96.0392 5.50531 96.2225 5.08004C96.4057 4.65477 96.5002 4.1968 96.5002 3.73399C96.5002 3.27118 96.4057 2.81321 96.2225 2.38793C96.0392 1.96266 95.771 1.57897 95.4341 1.26022V1.36258ZM90.5703 20.7433L21.0717 89.9748C20.7506 90.292 20.4958 90.6694 20.3219 91.0852C20.148 91.501 20.0585 91.947 20.0585 92.3974C20.0585 92.8478 20.148 93.2938 20.3219 93.7096C20.4958 94.1254 20.7506 94.5028 21.0717 94.82C21.3901 95.1398 21.7689 95.3936 22.1863 95.5669C22.6037 95.7401 23.0514 95.8293 23.5036 95.8293C23.9558 95.8293 24.4035 95.7401 24.8209 95.5669C25.2383 95.3936 25.6171 95.1398 25.9356 94.82L95.4341 25.4179C95.8946 24.7523 96.1029 23.9455 96.0219 23.1412C95.941 22.3369 95.576 21.5873 94.992 21.0261C94.408 20.4648 93.643 20.1283 92.8332 20.0766C92.0234 20.0248 91.2215 20.2611 90.5703 20.7433ZM90.5703 40.0558L40.2874 89.9748C39.9664 90.292 39.7115 90.6694 39.5376 91.0852C39.3637 91.501 39.2742 91.947 39.2742 92.3974C39.2742 92.8478 39.3637 93.2938 39.5376 93.7096C39.7115 94.1254 39.9664 94.5028 40.2874 94.82C40.6058 95.1398 40.9847 95.3936 41.4021 95.5669C41.8195 95.7401 42.2672 95.8293 42.7193 95.8293C43.1715 95.8293 43.6192 95.7401 44.0366 95.5669C44.454 95.3936 44.8329 95.1398 45.1513 94.82L95.4341 44.628C96.0791 43.9855 96.4415 43.1141 96.4415 42.2054C96.4415 41.2968 96.0791 40.4253 95.4341 39.7828C94.7891 39.1403 93.9143 38.7794 93.0022 38.7794C92.09 38.7794 91.2152 39.1403 90.5703 39.7828V40.0558ZM90.5703 59.3683L59.7429 90.0772C59.4219 90.3944 59.167 90.7718 58.9931 91.1875C58.8192 91.6033 58.7297 92.0493 58.7297 92.4998C58.7297 92.9502 58.8192 93.3962 58.9931 93.812C59.167 94.2278 59.4219 94.6051 59.7429 94.9223C60.0613 95.2422 60.4402 95.496 60.8576 95.6692C61.275 95.8425 61.7227 95.9316 62.1748 95.9316C62.627 95.9316 63.0747 95.8425 63.4921 95.6692C63.9095 95.496 64.2883 95.2422 64.6068 94.9223L95.4341 64.2134C96.0791 63.5709 96.4415 62.6995 96.4415 61.7909C96.4415 60.8822 96.0791 60.0108 95.4341 59.3683C94.7891 58.7258 93.9143 58.3648 93.0022 58.3648C92.09 58.3648 91.2152 58.7258 90.5703 59.3683ZM90.5703 78.6125L78.9929 90.1454C78.6718 90.4626 78.417 90.84 78.2431 91.2558C78.0692 91.6716 77.9797 92.1176 77.9797 92.568C77.9797 93.0184 78.0692 93.4644 78.2431 93.8802C78.417 94.296 78.6718 94.6734 78.9929 94.9906C79.3113 95.3104 79.6901 95.5642 80.1075 95.7375C80.5249 95.9107 80.9726 95.9999 81.4248 95.9999C81.877 95.9999 82.3247 95.9107 82.7421 95.7375C83.1595 95.5642 83.5383 95.3104 83.8567 94.9906L95.4341 83.4577C95.7535 83.1395 96.0068 82.7619 96.1797 82.3462C96.3525 81.9305 96.4415 81.485 96.4415 81.0351C96.4415 80.5852 96.3525 80.1397 96.1797 79.724C96.0068 79.3083 95.7535 78.9306 95.4341 78.6125C95.1148 78.2944 94.7356 78.042 94.3183 77.8698C93.9011 77.6977 93.4538 77.609 93.0022 77.609C92.5505 77.609 92.1033 77.6977 91.686 77.8698C91.2688 78.042 90.8896 78.2944 90.5703 78.6125Z" fill="#676767"/>
</svg>
