<svg width="24" height="24" viewBox="0 0 24 24" fill="none" xmlns="http://www.w3.org/2000/svg">
<path d="M23.7501 12.6061L20.3211 16.035C19.9859 16.3702 19.4442 16.3702 19.109 16.035C18.7738 15.6999 18.7738 15.1581 19.109 14.8229L21.0746 12.8572H12.8571V21.0748L14.8228 19.1091C15.158 18.7739 15.6997 18.7739 16.0349 19.1091C16.3701 19.4443 16.3701 19.9861 16.0349 20.3213L12.6059 23.7502C12.2819 24.0751 11.7376 24.0948 11.3929 23.7502L7.96398 20.3213C7.6288 19.9861 7.6288 19.4443 7.96398 19.1091C8.29916 18.7739 8.84094 18.7739 9.17612 19.1091L11.1426 21.0748V12.8572H2.92511L4.89077 14.8229C5.22595 15.1581 5.22595 15.6999 4.89077 16.035C4.55559 16.3702 4.01381 16.3702 3.67863 16.035L0.249658 12.6061C-0.0820949 12.2743 -0.0846666 11.7274 0.249658 11.3931L3.67863 7.9641C4.01381 7.62892 4.55559 7.62892 4.89077 7.9641C5.22595 8.29928 5.22595 8.84106 4.89077 9.17624L2.92511 11.1428H11.1426V2.92523L9.17698 4.89089C8.8418 5.22607 8.30002 5.22607 7.96484 4.89089C7.62966 4.55571 7.62966 4.01393 7.96484 3.67875L11.3938 0.24978C11.7256 -0.0819729 12.2725 -0.0845446 12.6068 0.24978L16.0358 3.67875C16.371 4.01393 16.371 4.55571 16.0358 4.89089C15.8678 5.05805 15.6483 5.14206 15.4288 5.14206C15.2094 5.14206 14.9899 5.05805 14.8228 4.89089L12.8571 2.92523V11.1428H21.0746L19.109 9.1771C18.7738 8.84192 18.7738 8.30014 19.109 7.96496C19.4442 7.62978 19.9859 7.62978 20.3211 7.96496L23.7501 11.3939C24.0844 11.7274 24.0819 12.2752 23.7501 12.6061Z" fill="#7209B7"/>
</svg>
