<svg width="97" height="88" viewBox="0 0 97 88" fill="none" xmlns="http://www.w3.org/2000/svg">
<path d="M70.3089 87.9993C69.6369 87.9993 68.949 87.9153 68.269 87.7353L6.41756 71.1714C2.1776 70.0034 -0.350372 65.6115 0.761617 61.3715L8.56554 32.2838C8.85354 31.2158 9.94953 30.5958 11.0135 30.8678C12.0815 31.1518 12.7135 32.2518 12.4295 33.3158L4.62958 62.3955C4.07358 64.5155 5.34557 66.7235 7.46955 67.3114L69.297 83.8673C71.4209 84.4273 73.6129 83.1633 74.1649 81.0513L77.2889 69.4754C77.5769 68.4074 78.6729 67.7715 79.7408 68.0635C80.8088 68.3514 81.4368 69.4514 81.1528 70.5154L78.0329 82.0753C77.0929 85.6353 73.8529 87.9993 70.3089 87.9993Z" fill="#676767"/>
<path d="M88.4967 63.9995H24.4974C20.0854 63.9995 16.4975 60.4115 16.4975 55.9996V8.00004C16.4975 3.58809 20.0854 0.00012207 24.4974 0.00012207H88.4967C92.9087 0.00012207 96.4967 3.58809 96.4967 8.00004V55.9996C96.4967 60.4115 92.9087 63.9995 88.4967 63.9995ZM24.4974 4.00008C22.2934 4.00008 20.4974 5.79606 20.4974 8.00004V55.9996C20.4974 58.2035 22.2934 59.9995 24.4974 59.9995H88.4967C90.7007 59.9995 92.4967 58.2035 92.4967 55.9996V8.00004C92.4967 5.79606 90.7007 4.00008 88.4967 4.00008H24.4974Z" fill="#676767"/>
<path d="M36.4973 27.9998C32.0853 27.9998 28.4973 24.4119 28.4973 19.9999C28.4973 15.588 32.0853 12 36.4973 12C40.9092 12 44.4972 15.588 44.4972 19.9999C44.4972 24.4119 40.9092 27.9998 36.4973 27.9998ZM36.4973 16C34.2933 16 32.4973 17.7959 32.4973 19.9999C32.4973 22.2039 34.2933 23.9999 36.4973 23.9999C38.7012 23.9999 40.4972 22.2039 40.4972 19.9999C40.4972 17.7959 38.7012 16 36.4973 16Z" fill="#676767"/>
<path d="M18.7774 59.7195C18.2654 59.7195 17.7535 59.5235 17.3615 59.1355C16.5815 58.3555 16.5815 57.0876 17.3615 56.3076L36.2533 37.4158C38.5172 35.1518 42.4732 35.1518 44.7372 37.4158L50.3611 43.0397L65.929 24.3599C67.061 23.0039 68.725 22.2159 70.4969 22.1999H70.5409C72.2929 22.1999 73.9529 22.9599 75.0969 24.2919L96.0167 48.6996C96.7367 49.5356 96.6407 50.7996 95.8007 51.5196C94.9647 52.2396 93.7047 52.1476 92.9807 51.3036L72.0609 26.8959C71.6729 26.4479 71.1369 26.1999 70.5409 26.1999C70.1249 26.1639 69.3929 26.4519 69.005 26.9199L52.0331 47.2837C51.6731 47.7157 51.1491 47.9756 50.5851 47.9996C50.0171 48.0396 49.4771 47.8157 49.0811 47.4157L41.9092 40.2437C41.1532 39.4917 39.8372 39.4917 39.0812 40.2437L20.1894 59.1355C19.8014 59.5235 19.2894 59.7195 18.7774 59.7195Z" fill="#676767"/>
</svg>
