<svg width="97" height="96" viewBox="0 0 97 96" fill="none" xmlns="http://www.w3.org/2000/svg">
<path d="M25.8219 36.9615H31.4469V32.25H45.6875V64.2842H40.8132V69.9092H56.1868V64.2842H51.3125V32.25H65.5531V36.9615H71.1781V26.625H25.8219V36.9615Z" fill="#676767"/>
<path d="M89.7969 75.1884V20.8116C93.7263 19.1906 96.5 15.3202 96.5 10.8126C96.5 4.85044 91.6496 0 85.6874 0C81.1797 0 77.3094 2.77369 75.6884 6.70312H21.3116C19.6906 2.77369 15.8202 0 11.3126 0C5.35044 0 0.5 4.85044 0.5 10.8126C0.5 15.3202 3.27369 19.1908 7.20312 20.8118V75.1884C3.27369 76.8094 0.5 80.6797 0.5 85.1874C0.5 91.1496 5.35044 96 11.3126 96C15.8202 96 19.6906 93.2263 21.3116 89.2969H75.6884C77.3094 93.2263 81.1797 96 85.6874 96C91.6496 96 96.5 91.1496 96.5 85.1874C96.5 80.6797 93.7263 76.8094 89.7969 75.1884ZM74.9834 83.6719H22.0166C21.3468 78.9206 17.5792 75.153 12.8281 74.4834V21.5166C17.5792 20.847 21.3468 17.0792 22.0166 12.3281H74.9834C75.6532 17.0794 79.4208 20.847 84.1719 21.5166V74.4832C79.4208 75.153 75.6532 78.9206 74.9834 83.6719ZM85.6874 5.625C88.5479 5.625 90.875 7.95206 90.875 10.8126C90.875 13.6731 88.5479 16.0001 85.6874 16.0001C82.8271 16.0001 80.5001 13.6731 80.5001 10.8126C80.5001 7.95206 82.8271 5.625 85.6874 5.625ZM11.3126 5.625C14.1729 5.625 16.4999 7.95206 16.4999 10.8126C16.4999 13.6731 14.1729 16.0001 11.3126 16.0001C8.45206 15.9999 6.125 13.6729 6.125 10.8126C6.125 7.95206 8.45206 5.625 11.3126 5.625ZM11.3126 90.375C8.45206 90.375 6.125 88.0479 6.125 85.1874C6.125 82.3269 8.45206 79.9999 11.3126 79.9999C14.1729 79.9999 16.4999 82.3269 16.4999 85.1874C16.4999 88.0479 14.1729 90.375 11.3126 90.375ZM85.6874 90.375C82.8271 90.375 80.5001 88.0479 80.5001 85.1874C80.5001 82.3269 82.8271 79.9999 85.6874 79.9999C88.5479 79.9999 90.875 82.3269 90.875 85.1874C90.875 88.0479 88.5479 90.375 85.6874 90.375Z" fill="#676767"/>
</svg>
